<?xml version="1.0" encoding="UTF-8" standalone="no"?>
<!-- Generator: Adobe Illustrator 16.0.4, SVG Export Plug-In . SVG Version: 6.00 Build 0)  -->

<svg
   xmlns:dc="http://purl.org/dc/elements/1.1/"
   xmlns:cc="http://creativecommons.org/ns#"
   xmlns:rdf="http://www.w3.org/1999/02/22-rdf-syntax-ns#"
   xmlns:svg="http://www.w3.org/2000/svg"
   xmlns="http://www.w3.org/2000/svg"
   xmlns:sodipodi="http://sodipodi.sourceforge.net/DTD/sodipodi-0.dtd"
   xmlns:inkscape="http://www.inkscape.org/namespaces/inkscape"
   version="1.1"
   id="Layer_1"
   x="0px"
   y="0px"
   width="783"
   height="511.3179"
   viewBox="0 0 783 511.31791"
   enable-background="new 0 0 783 112.588"
   xml:space="preserve"
   sodipodi:docname="logo-wsj.svg"
   inkscape:version="0.92.1 r15371"><metadata
     id="metadata7611"><rdf:RDF><cc:Work
         rdf:about=""><dc:format>image/svg+xml</dc:format><dc:type
           rdf:resource="http://purl.org/dc/dcmitype/StillImage" /><dc:title></dc:title></cc:Work></rdf:RDF></metadata><defs
     id="defs7609" /><sodipodi:namedview
     pagecolor="#ffffff"
     bordercolor="#666666"
     borderopacity="1"
     objecttolerance="10"
     gridtolerance="10"
     guidetolerance="10"
     inkscape:pageopacity="0"
     inkscape:pageshadow="2"
     inkscape:window-width="1920"
     inkscape:window-height="1003"
     id="namedview7607"
     showgrid="false"
     inkscape:zoom="0.62962963"
     inkscape:cx="1044.2647"
     inkscape:cy="-104.03491"
     inkscape:window-x="-9"
     inkscape:window-y="-9"
     inkscape:window-maximized="1"
     inkscape:current-layer="Layer_1" /><path
     inkscape:connector-curvature="0"
     id="path7600"
     d="m 21.652,61.544 c 0,3.023 0.878,3.607 2.829,4.097 l 3.023,0.683 v 1.365 H 7.412 V 66.324 L 9.948,65.74 c 1.951,-0.487 2.829,-1.465 2.829,-4.193 V 2.438 h -2.146 c -6.047,0 -8.485,9.851 -9.168,20.287 H 0 V 0.488 H 34.429 V 22.726 H 32.966 C 32.283,12.29 29.845,2.439 23.798,2.439 h -2.146 z m 14.923,4.779 2.146,-0.586 C 40.672,65.25 41.55,64.274 41.55,61.544 V 6.535 c 0,-2.731 -0.878,-3.609 -2.829,-4.097 L 36.575,1.853 V 0.487 H 55.594 V 1.853 L 53.351,2.438 C 51.498,2.926 50.425,3.706 50.425,6.437 V 32.088 H 65.153 V 6.437 c 0,-2.731 -1.073,-3.511 -2.926,-3.999 L 59.984,1.853 V 0.487 h 19.019 v 1.366 l -2.146,0.585 c -1.95,0.488 -2.828,1.366 -2.828,4.097 v 54.912 c 0,2.731 0.878,3.806 2.828,4.293 l 2.146,0.584 v 1.365 h -19.02 v -1.365 l 2.243,-0.486 c 1.853,-0.487 2.926,-1.562 2.926,-4.291 V 34.332 H 50.425 v 27.212 c 0,2.73 1.073,3.804 2.926,4.291 l 2.243,0.488 v 1.363 H 36.575 Z m 58.423,-0.584 h 6.73 c 8.778,0 10.436,-9.949 11.606,-20.287 h 1.463 V 67.687 H 81.148 v -1.364 l 2.146,-0.584 c 1.951,-0.488 2.829,-1.465 2.829,-4.194 V 6.632 c 0,-2.73 -0.878,-3.706 -2.829,-4.194 L 81.148,1.853 V 0.487 h 32.674 v 22.238 h -1.463 C 111.286,12.289 109.238,2.438 101.728,2.438 h -6.73 v 29.358 l 3.121,-0.098 c 4.194,-0.293 5.754,-3.901 6.827,-12.388 h 1.463 v 27.114 h -1.463 C 104.069,35.793 102.41,34.135 98.021,33.842 L 94.998,33.744 Z M 135.651,9.461 C 134.383,3.707 133.603,2.829 131.75,2.341 L 129.897,1.853 V 0.487 h 18.239 v 1.366 l -1.463,0.292 c -3.121,0.683 -2.829,3.804 -1.951,7.998 l 7.705,38.233 5.657,-30.431 -2.048,-10.437 c -0.78,-3.706 -1.073,-4.876 -3.023,-5.364 L 151.745,1.852 V 0.486 h 17.849 v 1.366 l -2.146,0.39 c -3.219,0.585 -2.731,4.096 -1.951,7.9 l 7.413,38.235 7.315,-36.186 c 1.365,-7.51 0.683,-9.363 -2.243,-9.948 l -2.048,-0.39 V 0.487 h 13.362 v 1.366 l -1.853,0.488 c -2.341,0.585 -2.926,2.438 -4.292,8.973 l -11.899,56.765 h -2.536 l -9.168,-44.28 -8.291,44.28 h -3.219 z m 95.389,56.278 h 3.901 c 8.29,0 10.729,-9.854 11.704,-20.287 h 1.463 v 22.235 h -49.84 v -1.364 l 2.048,-0.392 c 4.194,-0.778 4.194,-1.948 3.121,-7.803 l -1.853,-8.778 h -11.997 l -1.268,6.635 c -1.463,7.51 -0.683,9.361 2.244,9.946 l 2.048,0.392 v 1.364 h -13.557 v -1.364 l 1.658,-0.487 c 2.633,-0.78 3.316,-2.341 4.682,-8.974 L 197.293,0.096 h 2.926 l 12.484,58.618 c 1.268,6.048 1.853,7.313 5.364,7.313 3.023,0 4.096,-1.561 4.096,-4.484 V 6.534 c 0,-2.731 -0.877,-3.609 -2.828,-4.097 L 217.189,1.852 V 0.487 h 19.312 V 1.95 l -2.634,0.585 c -1.95,0.39 -2.828,1.268 -2.828,3.999 z M 189.978,47.108 h 11.119 L 195.44,19.41 Z m 74.126,18.631 h 3.901 c 8.291,0 10.729,-9.854 11.704,-20.287 h 1.463 v 22.235 h -30.918 v -1.364 l 2.146,-0.584 c 1.951,-0.488 2.829,-1.465 2.829,-4.194 V 6.535 c 0,-2.731 -0.878,-3.609 -2.829,-4.097 L 250.254,1.853 V 0.487 h 19.312 V 1.95 l -2.633,0.585 c -1.951,0.39 -2.829,1.268 -2.829,3.999 z m 48.872,2.338 c -5.656,0 -7.606,-3.899 -9.459,-3.899 -1.073,0 -2.341,0.292 -3.316,3.511 h -1.17 V 45.45 h 1.463 c 1.171,12.582 5.853,20.48 12.387,20.48 4.389,0 7.413,-3.999 7.413,-11.216 0,-15.216 -21.75,-21.75 -21.75,-38.624 0,-9.07 4.682,-15.996 12.972,-15.996 5.364,0 6.535,3.511 8.778,3.511 1.268,0 2.146,-0.975 2.633,-3.121 h 1.17 v 22.238 h -1.463 C 321.464,11.506 318.441,2.24 311.417,2.24 c -4.876,0 -5.852,4.876 -5.852,8.193 0,14.533 21.75,19.507 21.75,39.793 -0.003,10.343 -5.659,17.851 -14.339,17.851 z m 35.892,-6.533 c 0,2.73 0.878,3.706 2.829,4.193 l 2.536,0.586 v 1.363 h -19.604 v -1.363 l 2.536,-0.586 c 1.951,-0.487 2.829,-1.463 2.829,-4.193 V 2.438 h -2.146 c -6.047,0 -8.485,9.851 -9.168,20.287 h -1.463 V 0.488 h 34.431 v 22.238 h -1.464 C 359.501,12.29 357.064,2.439 351.016,2.439 h -2.146 v 59.105 z m 14.923,4.779 2.146,-0.586 c 1.951,-0.487 2.829,-1.463 2.829,-4.193 V 6.535 c 0,-2.731 -0.878,-3.609 -2.829,-4.097 L 363.791,1.853 V 0.487 h 18.629 c 8.291,0 15.996,5.267 15.996,16.288 0,8.486 -3.999,14.436 -12.095,16.582 8.876,1.657 8.876,5.853 9.754,17.067 l 0.585,8.583 c 0.293,4.779 0.488,5.854 1.854,5.854 1.463,0 2.049,-3.315 2.049,-6.535 v -1.658 h 1.657 v 2.242 c 0,5.365 -1.171,9.168 -6.729,9.168 -5.463,0 -7.998,-3.121 -8.39,-14.336 l -0.486,-12.484 c -0.195,-5.95 -1.658,-6.828 -4.487,-6.828 h -4.584 v 27.115 c 0,2.73 0.878,3.804 2.829,4.291 l 2.146,0.488 v 1.363 h -18.727 z m 13.752,-33.844 h 3.219 c 5.462,0 8.193,-1.463 8.193,-14.435 0,-12.972 -3.609,-15.605 -7.51,-15.605 h -3.901 z m 39.111,33.26 h 6.729 c 8.777,0 10.438,-9.949 11.606,-20.287 h 1.463 v 22.235 h -33.649 v -1.364 l 2.146,-0.584 c 1.95,-0.488 2.828,-1.465 2.828,-4.194 V 6.632 c 0,-2.73 -0.878,-3.706 -2.828,-4.194 L 402.803,1.853 V 0.487 h 32.675 v 22.238 h -1.464 C 432.944,12.289 430.894,2.438 423.383,2.438 h -6.729 v 29.358 l 3.121,-0.098 c 4.192,-0.293 5.755,-3.901 6.827,-12.388 h 1.464 v 27.114 h -1.464 c -0.879,-10.631 -2.535,-12.289 -6.927,-12.582 l -3.021,-0.098 z m 36.186,0 h 6.73 c 8.775,0 10.436,-9.949 11.604,-20.287 h 1.463 V 67.687 H 438.99 v -1.364 l 2.146,-0.584 c 1.95,-0.488 2.829,-1.465 2.829,-4.194 V 6.632 c 0,-2.73 -0.879,-3.706 -2.829,-4.194 L 438.99,1.853 V 0.487 h 32.674 v 22.238 h -1.463 C 469.128,12.289 467.08,2.438 459.57,2.438 h -6.73 v 29.358 l 3.121,-0.098 c 4.193,-0.293 5.754,-3.901 6.827,-12.388 h 1.464 v 27.114 h -1.464 C 461.91,35.793 460.252,34.135 455.863,33.842 l -3.023,-0.098 z m 43.598,-4.195 c 0,3.023 0.88,3.607 2.828,4.097 l 3.023,0.683 v 1.365 h -20.092 v -1.365 l 2.536,-0.584 c 1.948,-0.487 2.829,-1.465 2.829,-4.193 V 2.438 h -2.146 c -6.047,0 -8.485,9.851 -9.168,20.287 h -1.463 V 0.488 h 34.43 v 22.238 h -1.463 C 507.068,12.29 504.631,2.439 498.584,2.439 h -2.146 z m 53.553,-9.363 c 0,10.438 -5.27,15.896 -13.362,15.896 -7.313,0 -11.604,-5.948 -11.509,-12.483 0.098,-5.071 3.804,-7.606 6.827,-7.217 2.146,0.292 4.292,1.853 3.999,5.267 -0.293,4.877 -5.562,4.682 -5.755,7.705 -0.194,1.854 2.242,4.584 5.362,4.584 5.464,0 5.464,-6.925 5.464,-12.191 V 6.437 c 0,-2.731 -0.88,-3.511 -3.023,-3.999 L 535.556,1.853 V 0.487 h 19.216 v 1.366 l -2.146,0.585 c -1.95,0.488 -2.633,1.366 -2.633,4.097 z m 22.726,15.995 c -11.411,0 -16.972,-15.41 -16.972,-34.138 C 555.745,15.41 561.11,0 572.717,0 c 11.509,0 17.068,15.41 17.068,34.038 0,18.728 -5.266,34.138 -17.068,34.138 z m 0,-65.933 c -4.877,0 -7.313,3.901 -7.313,31.407 0,28.381 2.241,32.381 7.313,32.381 5.071,0 7.412,-4 7.412,-32.578 0,-27.308 -2.341,-31.21 -7.412,-31.21 z m 55.692,64.08 2.145,-0.586 c 1.951,-0.487 2.829,-1.463 2.829,-4.193 V 6.535 c 0,-3.219 -1.463,-4.389 -4.877,-4.389 -4.291,0 -5.364,1.951 -5.364,7.51 v 42.33 c 0,10.534 -3.706,16.19 -12.775,16.19 -9.363,0 -14.824,-5.656 -14.824,-15.897 V 6.535 c 0,-2.731 -0.684,-3.609 -2.634,-4.097 L 590.763,1.853 V 0.487 h 19.409 v 1.366 l -2.634,0.585 c -2.146,0.488 -3.023,1.268 -3.023,3.999 v 46.524 c 0,9.461 2.73,11.899 7.705,11.899 5.854,0 8.291,-3.316 8.291,-12.875 V 13.167 c 0,-8.193 -0.098,-10.144 -3.607,-10.924 L 615.05,1.853 V 0.487 h 31.992 c 8.29,0 15.995,5.267 15.995,16.288 0,8.486 -3.999,14.436 -12.095,16.582 8.876,1.657 8.876,5.853 9.754,17.067 l 0.585,8.583 c 0.293,4.779 0.486,5.854 1.854,5.854 1.463,0 2.049,-3.315 2.049,-6.535 v -1.658 h 1.657 v 2.242 c 0,5.365 -1.17,9.168 -6.729,9.168 -5.462,0 -7.998,-3.121 -8.39,-14.336 l -0.486,-12.484 c -0.195,-5.95 -1.658,-6.828 -4.486,-6.828 h -4.584 v 27.115 c 0,2.73 0.877,3.804 2.828,4.291 l 2.146,0.488 v 1.363 h -18.728 v -1.363 h -0.003 z m 13.752,-33.844 h 3.219 c 5.461,0 8.192,-1.463 8.192,-14.435 0,-12.972 -3.608,-15.605 -7.51,-15.605 h -3.901 z M 668.593,2.243 667.229,1.853 V 0.487 h 12.775 l 17.459,44.28 V 12.874 c 0,-7.217 0.194,-9.753 -4.975,-10.631 l -1.657,-0.39 V 0.487 h 14.435 v 1.366 l -1.364,0.39 c -4.193,0.975 -3.9,4.389 -3.9,11.216 v 54.229 h -3.121 l -21.849,-53.74 v 41.354 c 0,7.9 0,10.145 6.242,11.021 v 1.363 h -14.047 v -1.363 l 1.758,-0.293 c 3.606,-0.685 3.511,-4.194 3.511,-11.313 V 8.095 c -1.66,-3.413 -2.343,-5.267 -3.903,-5.852 z m 85.83,63.496 h 3.901 c 8.29,0 10.729,-9.854 11.704,-20.287 h 1.463 v 22.235 h -49.742 v -1.364 l 2.048,-0.392 c 4.194,-0.778 4.292,-1.948 3.121,-7.803 l -1.854,-8.778 h -11.995 l -1.271,6.635 c -1.463,7.51 -0.682,9.361 2.244,9.946 l 2.048,0.392 v 1.364 h -13.558 v -1.364 l 1.657,-0.487 c 2.635,-0.78 3.315,-2.341 4.683,-8.974 L 720.77,0.097 h 2.928 l 12.482,58.618 c 1.271,6.048 1.756,7.313 5.269,7.313 3.021,0 4.097,-1.561 4.097,-4.484 V 6.534 c 0,-2.731 -0.878,-3.609 -2.828,-4.097 L 740.572,1.852 V 0.487 h 19.312 V 1.95 l -2.634,0.585 c -1.95,0.39 -2.828,1.268 -2.828,3.999 z M 713.458,47.108 h 11.119 L 718.921,19.409 Z M 783,63.396 c 0,2.634 -1.95,4.585 -4.291,4.585 -2.341,0 -4.292,-1.951 -4.292,-4.585 0,-2.633 1.951,-4.584 4.292,-4.584 2.341,0 4.291,1.952 4.291,4.584 z" /><g
     id="g8359"
     transform="matrix(2.568305,0,0,2.568305,633.49272,788.93591)"><path
       d="m -193.84375,-266.59961 v 3.19531 l 2.9668,0.6836 c 4.56055,1.1413 5.24608,3.87754 7.07031,12.54492 l 4.78906,24.41016 -13.23047,71.16992 -18.01953,-89.41797 c -2.05341,-9.80868 -2.73673,-17.10772 4.5625,-18.70508 l 3.42188,-0.68359 v -3.19336 h -42.65625 v 3.19336 l 4.33398,1.14257 c 4.33368,1.14131 6.15752,3.19326 9.12305,16.65039 l 28.9707,137.09376 h 7.52734 l 19.39063,-103.56055 21.44141,103.56055 h 5.93164 l 27.82812,-132.75977 c 3.19471,-15.28367 4.56407,-19.61622 10.03906,-20.98438 l 4.33204,-1.14257 v -3.19336 h -31.25 v 3.19336 l 4.79101,0.91211 c 6.84317,1.36818 8.43654,5.70165 5.24414,23.26562 l -17.10742,84.63086 -17.33594,-89.42187 c -1.82421,-8.89657 -2.96591,-17.10841 4.5625,-18.47657 l 5.01758,-0.91211 v -3.19531 z"
       style="stroke-width:2.33874226"
       id="path7600-1"
       inkscape:connector-curvature="0" /><path
       inkscape:connector-curvature="0"
       d="m 9.131094,-266.16808 v 3.19336 l 5.70117,1.36914 c 5.01194,1.14131 7.07031,2.96447 7.07031,9.35156 v 110.63477 c 0,12.31587 -4.2e-4,28.51171 -12.7793,28.51172 -7.2968805,0 -12.9947305,-6.38467 -12.5410105,-10.72071 0.45139,-7.07001 12.7756905,-6.61348 13.4609405,-18.01953 0.68524,-7.98448 -4.334571,-11.63545 -9.3535205,-12.31836 -7.07003,-0.90977 -15.7375995,5.01914 -15.9667995,16.87891 -0.22219,15.28368 9.8127995,29.19336 26.91602,29.19336 18.9251,0 31.25195,-12.76399 31.25195,-37.17578 l 0.004,-106.75391 c 0,-6.3871 1.59767,-8.44072 6.1582,-9.58203 l 5.01953,-1.36914 v -3.19336 z"
       style="stroke-width:2.33874226"
       id="path7600-1-3" /><path
       inkscape:connector-curvature="0"
       d="m -67.723574,-267.08904 c -19.38818,-10e-6 -30.33789,16.19775 -30.33789,37.41015 0,39.46394 50.86719,54.74574 50.86719,90.33204 0,16.8787 -7.07121,26.23046 -17.33594,26.23046 -15.28134,0 -26.23204,-18.47043 -28.9707,-47.89648 h -3.42188 v 52.01172 h 2.73633 c 2.28026,-7.52842 5.24639,-8.21094 7.75586,-8.21094 4.33368,0 8.89303,9.11719 22.12109,9.11719 20.30025,0 33.52716,-17.55845 33.53516,-41.74805 0,-47.44373 -50.86719,-59.07745 -50.86719,-93.0664 0,-7.7576 2.28184,-19.16016 13.68555,-19.16016 16.42732,0 23.49805,21.671 26.23437,47.90234 h 3.42188 v -52.00976 h -2.73633 c -1.13897,5.01893 -3.19267,7.29883 -6.1582,7.29883 -5.24579,0 -7.9843,-8.21101 -20.5293,-8.21094 z m 36.7207,44.73437 v 0.5625 c 0.0355,-0.0213 0.0717,-0.0433 0.10742,-0.0645 -0.0172,-0.14018 -0.039,-0.27954 -0.0547,-0.41992 -0.0196,-0.0236 -0.0337,-0.0538 -0.0527,-0.0781 z"
       style="stroke-width:2.33874226"
       id="path7600-1-4" /></g></svg>